<?xml version="1.0" standalone="no"?>
<!DOCTYPE svg PUBLIC "-//W3C//DTD SVG 20010904//EN"
 "http://www.w3.org/TR/2001/REC-SVG-20010904/DTD/svg10.dtd">
<svg version="1.0" xmlns="http://www.w3.org/2000/svg"
 width="600.000000pt" height="600.000000pt" viewBox="0 0 600.000000 600.000000"
 preserveAspectRatio="xMidYMid meet">
<metadata>
Created by potrace 1.11, written by Peter Selinger 2001-2013
</metadata>
<g transform="translate(0.000000,600.000000) scale(0.100000,-0.100000)"
fill="#000000" stroke="none">
<path d="M4926 5985 c-3 -8 -1 -15 3 -15 5 0 11 7 15 15 3 8 1 15 -3 15 -5 0
-11 -7 -15 -15z"/>
<path d="M869 5826 c-2 -2 -24 -7 -49 -11 -239 -35 -503 -252 -590 -483 -58
-153 -54 36 -57 -2307 -2 -1876 -1 -2158 13 -2215 8 -36 17 -76 20 -89 2 -13
18 -52 34 -87 105 -232 314 -401 570 -460 55 -13 4284 -16 4355 -4 322 58 566
280 651 595 18 68 19 142 19 2230 0 2081 -1 2163 -19 2230 -22 82 -66 184
-104 240 -97 142 -248 263 -397 316 -136 49 -64 48 -2321 48 -1166 1 -2123 -1
-2125 -3z"/>
</g>
</svg>
